<svg width="512" height="512" viewBox="0 0 512 512" fill="none" xmlns="http://www.w3.org/2000/svg">
<g clip-path="url(#clip0_1_5)">
<path d="M362 0H150C67.1573 0 0 67.1573 0 150V362C0 444.843 67.1573 512 150 512H362C444.843 512 512 444.843 512 362V150C512 67.1573 444.843 0 362 0Z" fill="#7E22CE"/>
<path d="M258.444 69.803L255.444 68.0719L252.445 69.8047L181.461 110.813L178.462 112.545V116.008V136.147L97.2312 183.042L94.231 184.774V188.238V270.279L75.054 281.35L72.0538 283.082V286.546V368.538V371.999L75.0501 373.732L146.081 414.809L149.085 416.546L152.089 414.809L180.18 398.564L253.391 440.842L256.392 442.574L259.392 440.842L333.063 398.308L361.596 414.809L364.597 416.545L367.6 414.811L438.631 373.804L441.631 372.072V368.608V286.546V283.082L438.631 281.35L418.554 269.76V188.238V184.774L415.555 183.042L332.523 135.092V116.008V112.543L329.521 110.811L258.444 69.803ZM329.523 203.219L332.523 201.487V198.023V170.273L388.092 202.364V252.173L367.6 240.342L364.6 238.61L361.6 240.342L290.569 281.35L287.569 283.082V286.546V368.538V371.999L290.565 373.732L302.625 380.707L256.393 407.395L210.618 380.961L223.119 373.732L226.115 371.999V368.538V286.546V283.082L223.115 281.35L152.085 240.342L149.085 238.61L146.085 240.342L124.692 252.692V202.363L178.462 171.305V198.023V201.487L181.462 203.219L252.492 244.227L255.492 245.959L258.492 244.227L329.523 203.219ZM349.369 372.594L318.031 354.505V318.306L349.369 336.395V372.594ZM379.831 372.579V336.326L411.169 318.237V354.44L379.831 372.579ZM102.515 354.435V318.237L133.854 336.326V372.524L102.515 354.435ZM164.315 336.327L195.654 318.237V354.435L164.315 372.524V336.327ZM364.6 310.033L333.26 291.925L364.6 273.836L395.94 291.926L364.6 310.033ZM180.425 291.911L149.085 309.967L117.744 291.911L149.085 273.771L180.425 291.911ZM240.215 201.98L208.923 183.899V147.709L240.215 165.807V201.98ZM270.723 201.962V165.807L302.015 147.709V183.898L270.723 201.962ZM255.448 139.425L224.147 121.338L255.448 103.252L286.783 121.338L255.448 139.425Z" stroke="white" stroke-width="12"/>
</g>
<defs>
<clipPath id="clip0_1_5">
<rect width="512" height="512" fill="white"/>
</clipPath>
</defs>
</svg>
